{"title":"Suite.Francaise.2014.BRRip.480.x264.AAC-VYTO [P2PDL]","uid":12161277,"size":401127114,"categoryP":"video","categoryS":"movies","magnet":"?xt=urn:btih:c30211c7d6ec406f2573cc2477298bbccbd0241a&amp;dn=Suite.Francaise.2014.BRRip.480.x264.AAC-VYTO+%5BP2PDL%5D&amp;tr=udp%3A%2F%2Ftracker.openbittorrent.com%3A80&amp;tr=udp%3A%2F%2Fopen.demonii.com%3A1337&amp;tr=udp%3A%2F%2Ftracker.coppersurfer.tk%3A6969&amp;tr=udp%3A%2F%2Fexodus.desync.com%3A6969","seeders":1,"leechers":0,"uploader":"ValidusVyto","files":7,"time":1437917430,"description":"____    ____ ____    ____ .___________.  ______   \n     /   /      /   / |           | /  __    \n    /   /      /   /  `---|  |----`|  |  |  | \n        /     _    _/       |  |     |  |  |  | \n       /        |  |         |  |     |  `--'  | \n    __/         |__|         |__|      ______/  \n                                                  \nPresenting Small Encodes with quality for years!\n                                                                                                   \n                                                                                                   \n\nSuite.Francaise.2014.BRRip.480.x264.AAC-VYTO\n\n\nGenre: Drama, Romance, War &lt;a href=&quot;\nhttp://www.imdb.com/title/tt0900387/&quot; rel=&quot;nofollow&quot; target=&quot;_NEW&quot;&gt;\nhttp://www.imdb.com/title/tt0900387/&lt;/a&gt;\n\n\nGeneral\nFormat                         : MPEG-4\nFile size                      : 375 MiB\nDuration                       : 1h 47mn\nOverall bit rate               : 486 Kbps\n\nVideo\nFormat                         : AVC\nBit rate                       : 452 Kbps\nWidth                          : 720 pixels\nHeight                         : 304 pixels\nDisplay aspect ratio           : 2.35:1\nFrame rate mode                : Constant\nFrame rate                     : 24.000 fps\nBit depth                      : 8 bits\nStream size                    : 348 MiB (93%)\nWriting library                : x264 core 146 r2538 121396c\n\nAudio\nFormat                         : AAC\nBit rate mode                  : Variable\nBit rate                       : 31.9 Kbps\nChannel(s)                     : 2 channels\nChannel positions              : Front: L R\nSampling rate                  : 48.0 KHz\nStream size                    : 24.7 MiB (7%)\nLanguage                       : English\n\nSubtitle                       : Yes (English)\nSource                         : 720p.BluRay.x264.DTS\n\nScreenshots:\n &lt;a href=&quot;\nhttp://ititli.com/Xr&quot; rel=&quot;nofollow&quot; target=&quot;_NEW&quot;&gt;\nhttp://ititli.com/Xr&lt;/a&gt; &lt;a href=&quot;\nhttp://ititli.com/X1&quot; rel=&quot;nofollow&quot; target=&quot;_NEW&quot;&gt;\nhttp://ititli.com/X1&lt;/a&gt; &lt;a href=&quot;\nhttp://ititli.com/XT&quot; rel=&quot;nofollow&quot; target=&quot;_NEW&quot;&gt;\nhttp://ititli.com/XT&lt;/a&gt; &lt;a href=&quot;\nhttp://ititli.com/XW&quot; rel=&quot;nofollow&quot; target=&quot;_NEW&quot;&gt;\nhttp://ititli.com/XW&lt;/a&gt; &lt;a href=&quot;\nhttp://ititli.com/Xg&quot; rel=&quot;nofollow&quot; target=&quot;_NEW&quot;&gt;\nhttp://ititli.com/Xg&lt;/a&gt; &lt;a href=&quot;\nhttp://ititli.com/Xn&quot; rel=&quot;nofollow&quot; target=&quot;_NEW&quot;&gt;\nhttp://ititli.com/Xn&lt;/a&gt; &lt;a href=&quot;\nhttp://ititli.com/Xw&quot; rel=&quot;nofollow&quot; target=&quot;_NEW&quot;&gt;\nhttp://ititli.com/Xw&lt;/a&gt; &lt;a href=&quot;\nhttp://ititli.com/X2&quot; rel=&quot;nofollow&quot; target=&quot;_NEW&quot;&gt;\nhttp://ititli.com/X2&lt;/a&gt; &lt;a href=&quot;\nhttp://ititli.com/X6&quot; rel=&quot;nofollow&quot; target=&quot;_NEW&quot;&gt;\nhttp://ititli.com/X6&lt;/a&gt; &lt;a href=&quot;\nhttp://ititli.com/X8&quot; rel=&quot;nofollow&quot; target=&quot;_NEW&quot;&gt;\nhttp://ititli.com/X8&lt;/a&gt; &lt;a href=&quot;\nhttp://ititli.com/Xe&quot; rel=&quot;nofollow&quot; target=&quot;_NEW&quot;&gt;\nhttp://ititli.com/Xe&lt;/a&gt; &lt;a href=&quot;\nhttp://ititli.com/Xj&quot; rel=&quot;nofollow&quot; target=&quot;_NEW&quot;&gt;\nhttp://ititli.com/Xj&lt;/a&gt;\n\n----------------------------------------------------------------------------------------------------\n\n\nEncoder Notes: Looking For Early Access To Anything You Can Provide DVDScr, R5, DVDR, BluRay, Direct\nAudio, Music Releases and Seedboxes. If You Got anything to offer please contact us.\n\nSupport us by donating BC - 1FgwdzPsd1y25Gea8wP1qni35uGCtmkRCD","torrent":{"xt":"urn:btih:c30211c7d6ec406f2573cc2477298bbccbd0241a","amp;dn":"Suite.Francaise.2014.BRRip.480.x264.AAC-VYTO+%5BP2PDL%5D","amp;tr":["udp%3A%2F%2Ftracker.openbittorrent.com%3A80","udp%3A%2F%2Fopen.demonii.com%3A1337","udp%3A%2F%2Ftracker.coppersurfer.tk%3A6969","udp%3A%2F%2Fexodus.desync.com%3A6969"],"infoHash":"c30211c7d6ec406f2573cc2477298bbccbd0241a","infoHashBuffer":{"type":"Buffer","data":[195,2,17,199,214,236,64,111,37,115,204,36,119,41,139,188,203,208,36,26]},"announce":[],"urlList":[]}}